<svg aria-hidden="true" style="position: absolute; width: 0; height: 0; overflow: hidden;" version="1.1" xmlns="http://www.w3.org/2000/svg" xmlns:xlink="http://www.w3.org/1999/xlink">
<defs>
<symbol id="icon-star" viewBox="0 0 32 32">
<path d="M16 23.374l7.125 3.75c0.083 0.021 0.156 0.010 0.219-0.031s0.084-0.104 0.063-0.188l-1.344-7.938 5.75-5.625c0.063-0.063 0.084-0.13 0.063-0.203s-0.072-0.12-0.156-0.141l-7.969-1.156-3.563-7.219c-0.042-0.083-0.105-0.125-0.188-0.125s-0.146 0.042-0.188 0.125l-3.563 7.219-7.969 1.156c-0.083 0.021-0.135 0.068-0.156 0.141s0 0.141 0.063 0.203l5.75 5.625-1.375 7.938c0 0.083 0.031 0.146 0.094 0.188s0.136 0.052 0.219 0.031l7.125-3.75zM9.813 28.874c-0.396 0.209-0.797 0.297-1.203 0.266s-0.781-0.172-1.125-0.422c-0.344-0.25-0.594-0.568-0.75-0.953s-0.203-0.786-0.141-1.203l1.188-6.906-5-4.875c-0.313-0.292-0.516-0.641-0.609-1.047s-0.072-0.812 0.063-1.219c0.135-0.407 0.359-0.74 0.672-1s0.677-0.421 1.094-0.484l6.938-1 3.094-6.281c0.187-0.396 0.458-0.698 0.813-0.906s0.74-0.312 1.156-0.313c0.416-0.001 0.801 0.104 1.156 0.313s0.626 0.511 0.813 0.906l3.094 6.281 6.938 1c0.417 0.063 0.787 0.224 1.109 0.484s0.547 0.593 0.672 1c0.125 0.407 0.141 0.813 0.047 1.219s-0.297 0.755-0.609 1.047l-5 4.875 1.188 6.906c0.063 0.417 0.016 0.818-0.141 1.203s-0.407 0.703-0.75 0.953c-0.343 0.25-0.718 0.391-1.125 0.422s-0.808-0.047-1.203-0.234l-6.188-3.281-6.191 3.249z"></path>
</symbol>
<symbol id="icon-next" viewBox="0 0 26 32">
<path fill="none"   stroke-linejoin="round" stroke-linecap="round" stroke-miterlimit="4" stroke-width="6.4" d="M5.172 3.2l14.169 12.8-14.169 12.8"></path>
</symbol>
</defs>
</svg>
